<?xml version="1.0" standalone="no"?>
<!DOCTYPE svg PUBLIC "-//W3C//DTD SVG 20010904//EN"
 "http://www.w3.org/TR/2001/REC-SVG-20010904/DTD/svg10.dtd">
<svg version="1.0" xmlns="http://www.w3.org/2000/svg"
 width="181.000000pt" height="45.000000pt" viewBox="0 0 181.000000 45.000000"
 preserveAspectRatio="xMidYMid meet">

<g transform="translate(0.000000,45.000000) scale(0.100000,-0.100000)"
fill="#000000" stroke="none">
<path d="M158 440 c-20 -12 -39 -97 -35 -160 2 -43 1 -44 -33 -50 -45 -8 -62
-18 -54 -32 4 -7 2 -8 -4 -4 -28 17 -42 -89 -17 -127 31 -48 90 -59 137 -26
l29 21 23 -21 c12 -11 27 -21 33 -21 20 0 64 42 59 57 -3 8 -2 11 4 8 5 -3 14
14 21 37 18 67 28 88 42 88 25 0 37 -24 37 -77 0 -96 45 -140 95 -93 17 16 29
20 42 15 10 -5 22 -7 26 -6 5 1 6 -3 3 -8 -11 -17 14 -23 43 -11 16 6 37 27
47 45 l18 35 20 -33 c38 -60 64 -69 117 -41 22 11 29 20 24 32 -3 9 -3 13 2 9
4 -4 14 7 23 25 24 52 51 48 78 -12 27 -59 58 -79 100 -64 28 10 75 70 67 85
-7 11 33 32 49 26 7 -3 16 -19 19 -36 9 -41 49 -81 83 -81 32 0 94 59 94 89 0
16 6 21 25 21 19 0 28 -8 39 -33 16 -39 60 -77 88 -77 11 0 32 7 47 16 25 15
30 15 59 0 17 -9 44 -16 60 -16 45 0 131 64 132 98 0 20 -28 14 -35 -8 -12
-39 -87 -70 -129 -54 -23 9 -20 18 13 52 53 53 51 124 -4 138 -61 15 -109 -47
-103 -134 2 -33 -1 -47 -14 -55 -25 -17 -67 7 -83 47 -14 33 -13 38 19 103 43
86 56 179 30 218 -22 34 -60 30 -88 -8 -18 -25 -21 -43 -22 -143 0 -62 -3
-116 -6 -120 -4 -3 -23 10 -43 30 -34 34 -54 45 -56 29 0 -5 -2 -16 -4 -25 -2
-9 8 -28 22 -42 27 -28 25 -52 -7 -81 -24 -22 -65 -13 -81 17 -17 32 -13 92
11 156 33 88 43 161 25 189 -9 13 -24 23 -35 23 -33 0 -52 -53 -58 -167 -5
-113 -18 -139 -50 -109 -10 9 -22 13 -26 9 -4 -4 -4 0 -1 9 6 16 -19 33 -35
23 -13 -8 -3 -45 16 -66 17 -18 28 -83 14 -74 -4 3 -13 -2 -20 -10 -7 -8 -23
-15 -36 -15 -49 0 -75 89 -46 160 29 72 43 133 37 157 -4 17 -2 23 6 18 13 -9
3 32 -13 53 -14 16 -43 15 -57 -1 -19 -24 -42 -145 -36 -195 5 -35 2 -52 -9
-67 -16 -20 -16 -19 -44 14 -20 23 -34 32 -46 28 -24 -9 -20 -29 14 -72 31
-39 37 -50 21 -40 -5 3 -12 -3 -15 -13 -4 -10 -17 -25 -31 -32 -31 -16 -65 3
-81 47 -10 26 -7 44 18 119 37 113 47 194 25 213 -52 42 -88 -28 -91 -176 -1
-84 -6 -117 -21 -147 -45 -89 -88 -67 -84 44 2 52 -1 66 -13 68 -16 3 -28 -35
-28 -93 0 -19 -8 -39 -20 -50 -11 -10 -17 -21 -15 -25 3 -5 -4 -6 -15 -3 -30
8 -40 35 -35 90 6 59 -1 83 -24 83 -9 0 -34 9 -55 20 -22 10 -42 17 -46 15 -4
-3 -8 -28 -8 -57 0 -55 -27 -138 -44 -138 -5 0 -6 -5 -3 -10 4 -6 -5 -5 -20 2
-31 14 -40 46 -26 91 7 19 14 43 16 53 2 10 9 39 16 64 19 80 -8 180 -49 180
-9 0 -25 -5 -34 -10z m56 -140 c-3 -47 -6 -92 -7 -101 -1 -8 -9 -16 -19 -16
-18 -2 -34 30 -29 60 1 9 -2 17 -7 17 -5 0 -5 23 0 58 5 31 7 67 5 80 -4 18
-1 21 14 17 12 -4 19 -1 19 7 1 7 7 2 15 -12 10 -18 12 -48 9 -110z m1264 91
c6 -16 8 -31 6 -34 -3 -2 -6 -20 -8 -38 -6 -60 -46 -133 -63 -116 -12 13 -4
197 9 197 5 0 7 4 4 8 -2 4 6 9 19 10 17 1 26 -5 33 -27z m-743 -38 c-4 -32
-8 -68 -9 -80 -1 -11 -4 -19 -8 -16 -5 2 -8 -4 -8 -14 -1 -17 -1 -17 -12 1
-24 42 -2 166 30 166 12 0 13 -9 7 -57z m246 40 c3 -43 -3 -81 -19 -123 l-17
-45 -6 65 c-5 47 -3 73 7 93 16 31 33 36 35 10z m247 -17 c3 -27 -23 -123 -39
-140 -5 -6 -9 0 -10 15 -4 97 -3 127 2 123 4 -2 9 6 12 17 8 29 31 19 35 -15z
m423 -172 c11 -13 10 -22 -6 -52 -26 -45 -52 -63 -65 -42 -16 25 -11 69 10 90
24 24 43 25 61 4z m-1520 -11 c4 -4 13 -29 20 -55 12 -42 11 -49 -6 -68 -19
-21 -79 -28 -90 -10 -4 6 -10 8 -14 6 -18 -12 -16 92 3 113 9 10 14 20 11 23
-3 3 11 4 31 2 20 -1 40 -6 45 -11z"/>
<path d="M533 343 c-18 -7 -16 -42 2 -49 24 -10 47 14 34 37 -10 19 -15 21
-36 12z"/>
</g>
</svg>
